<svg width="280px" height="210px" version="1.1" xmlns="http://www.w3.org/2000/svg"><g id="yurt" transform="translate(-409.39 -570.51)"><path id="chimney" d="m604.3 641.8c-1.8 0-3.3-1.5-3.3-3.3v-63.7c0-1.8 1.5-3.3 3.3-3.3s3.3 1.5 3.3 3.3v63.7c0 1.8-1.5 3.3-3.3 3.3z" fill="#893f5c"/><path d="m664.7 660.4-100.9-62.8c-14.8-9.2-33.6-8.6-47.8 1.5l-86.1 61.2c-6.6 4.7-10.9 12-11.7 20.1l-10 95.1h279.7l-9.9-94c-1-8.7-5.9-16.5-13.3-21.1z" fill="#cc4452"/><g fill="#7a3852"><path d="m665.6 661h-236.7c-2.6 2-4.8 4.4-6.5 7.2h250.5c-2-2.8-4.4-5.2-7.3-7.2z"/><polygon points="415.5 705.2 415.1 709.1 680.8 709.1 680.4 705.2"/><polygon points="683.3 733.2 682.9 729.3 413 729.3 412.6 733.2"/></g><g fill="#7a3852"><circle cx="424.4" cy="718.9" r="3.8"/><circle cx="449.1" cy="718.9" r="3.8"/><circle cx="473.8" cy="718.9" r="3.8"/><circle cx="498.5" cy="718.9" r="3.8"/><circle cx="597.4" cy="718.9" r="3.8"/><circle cx="622.1" cy="718.9" r="3.8"/><circle cx="646.8" cy="718.9" r="3.8"/><circle cx="671.5" cy="718.9" r="3.8"/></g><polygon points="685.4 752.9 410.5 752.9 408.1 775.5 687.8 775.5" fill="#b33c48"/><rect x="520.6" y="680.1" width="54.8" height="95.5" fill="#f3b562"/><g id="door" fill="#cc8752"><rect x="520.6" y="696.6" width="54.8" height="7.7"/><rect x="520.6" y="751.2" width="54.8" height="7.7"/></g></g></svg>
